<mxfile host="app.diagrams.net" modified="2023-05-28T15:53:58.810Z" agent="Mozilla/5.0 (Windows NT 10.0; Win64; x64; rv:109.0) Gecko/20100101 Firefox/113.0" etag="H37x6gjnYs9wIPa7c5qn" version="21.3.2" type="device">
  <diagram name="Page-1" id="6bfPkC16kugTYoz8nDlM">
    <mxGraphModel dx="478" dy="261" grid="1" gridSize="10" guides="1" tooltips="1" connect="1" arrows="1" fold="1" page="1" pageScale="1" pageWidth="850" pageHeight="1100" math="0" shadow="0">
      <root>
        <mxCell id="0" />
        <mxCell id="1" parent="0" />
        <mxCell id="QAPO_vSzAAuB1gk4NF0p-28" value="" style="rounded=0;whiteSpace=wrap;html=1;fillColor=none;" parent="1" vertex="1">
          <mxGeometry x="245" y="290" width="210" height="70" as="geometry" />
        </mxCell>
        <mxCell id="QAPO_vSzAAuB1gk4NF0p-29" value="" style="rounded=0;whiteSpace=wrap;html=1;fillColor=none;" parent="1" vertex="1">
          <mxGeometry x="350" y="170" width="105" height="80" as="geometry" />
        </mxCell>
        <mxCell id="QAPO_vSzAAuB1gk4NF0p-25" value="" style="rounded=0;whiteSpace=wrap;html=1;fillColor=none;" parent="1" vertex="1">
          <mxGeometry x="245" y="170" width="105" height="80" as="geometry" />
        </mxCell>
        <mxCell id="QAPO_vSzAAuB1gk4NF0p-22" value="" style="rounded=0;whiteSpace=wrap;html=1;fillColor=none;" parent="1" vertex="1">
          <mxGeometry x="140" y="170" width="105" height="190" as="geometry" />
        </mxCell>
        <mxCell id="QAPO_vSzAAuB1gk4NF0p-20" value="" style="rounded=0;whiteSpace=wrap;html=1;fillColor=none;" parent="1" vertex="1">
          <mxGeometry x="35" y="170" width="105" height="190" as="geometry" />
        </mxCell>
        <mxCell id="QAPO_vSzAAuB1gk4NF0p-1" value="" style="points=[[0.13,0.02,0],[0.5,0,0],[0.87,0.02,0],[0.885,0.4,0],[0.985,0.985,0],[0.5,1,0],[0.015,0.985,0],[0.115,0.4,0]];verticalLabelPosition=bottom;sketch=0;html=1;verticalAlign=top;aspect=fixed;align=center;pointerEvents=1;shape=mxgraph.cisco19.laptop;fillColor=#005073;strokeColor=none;" parent="1" vertex="1">
          <mxGeometry x="68" y="191" width="50" height="35" as="geometry" />
        </mxCell>
        <mxCell id="QAPO_vSzAAuB1gk4NF0p-9" value="" style="rounded=0;orthogonalLoop=1;jettySize=auto;html=1;entryX=0;entryY=0.5;entryDx=0;entryDy=0;entryPerimeter=0;" parent="1" source="QAPO_vSzAAuB1gk4NF0p-3" target="QAPO_vSzAAuB1gk4NF0p-6" edge="1">
          <mxGeometry x="-0.0339" y="-5" relative="1" as="geometry">
            <mxPoint as="offset" />
          </mxGeometry>
        </mxCell>
        <mxCell id="QAPO_vSzAAuB1gk4NF0p-3" value="" style="image;aspect=fixed;perimeter=ellipsePerimeter;html=1;align=center;shadow=0;dashed=0;spacingTop=3;image=img/lib/active_directory/generic_server.svg;" parent="1" vertex="1">
          <mxGeometry x="73.5" y="240" width="28.000000000000004" height="50" as="geometry" />
        </mxCell>
        <mxCell id="QAPO_vSzAAuB1gk4NF0p-10" value="" style="rounded=0;orthogonalLoop=1;jettySize=auto;html=1;exitX=1;exitY=0.5;exitDx=0;exitDy=0;" parent="1" source="QAPO_vSzAAuB1gk4NF0p-5" edge="1">
          <mxGeometry relative="1" as="geometry">
            <mxPoint x="100" y="336.6190476190477" as="sourcePoint" />
            <mxPoint x="160" y="280" as="targetPoint" />
          </mxGeometry>
        </mxCell>
        <mxCell id="QAPO_vSzAAuB1gk4NF0p-5" value="" style="image;html=1;image=img/lib/clip_art/networking/Firewall-page1_128x128.png" parent="1" vertex="1">
          <mxGeometry x="67.5" y="290" width="40" height="50" as="geometry" />
        </mxCell>
        <mxCell id="QAPO_vSzAAuB1gk4NF0p-14" value="" style="rounded=0;orthogonalLoop=1;jettySize=auto;html=1;" parent="1" source="QAPO_vSzAAuB1gk4NF0p-6" target="QAPO_vSzAAuB1gk4NF0p-15" edge="1">
          <mxGeometry x="0.0029" relative="1" as="geometry">
            <mxPoint x="271.5" y="265" as="targetPoint" />
            <mxPoint as="offset" />
          </mxGeometry>
        </mxCell>
        <mxCell id="QAPO_vSzAAuB1gk4NF0p-6" value="" style="sketch=0;points=[[0.015,0.015,0],[0.985,0.015,0],[0.985,0.985,0],[0.015,0.985,0],[0.25,0,0],[0.5,0,0],[0.75,0,0],[1,0.25,0],[1,0.5,0],[1,0.75,0],[0.75,1,0],[0.5,1,0],[0.25,1,0],[0,0.75,0],[0,0.5,0],[0,0.25,0]];verticalLabelPosition=bottom;html=1;verticalAlign=top;aspect=fixed;align=center;pointerEvents=1;shape=mxgraph.cisco19.rect;prIcon=flow_collector;fillColor=#FAFAFA;strokeColor=#005073;" parent="1" vertex="1">
          <mxGeometry x="160.5" y="240" width="64" height="50" as="geometry" />
        </mxCell>
        <mxCell id="QAPO_vSzAAuB1gk4NF0p-19" style="rounded=0;orthogonalLoop=1;jettySize=auto;html=1;entryX=0.75;entryY=0;entryDx=0;entryDy=0;entryPerimeter=0;" parent="1" target="QAPO_vSzAAuB1gk4NF0p-12" edge="1">
          <mxGeometry relative="1" as="geometry">
            <mxPoint x="400" y="230" as="sourcePoint" />
          </mxGeometry>
        </mxCell>
        <mxCell id="QAPO_vSzAAuB1gk4NF0p-11" value="" style="image;aspect=fixed;perimeter=ellipsePerimeter;html=1;align=center;shadow=0;dashed=0;spacingTop=3;image=img/lib/active_directory/databases.svg;" parent="1" vertex="1">
          <mxGeometry x="382" y="183.5" width="50" height="49" as="geometry" />
        </mxCell>
        <mxCell id="QAPO_vSzAAuB1gk4NF0p-12" value="" style="sketch=0;points=[[0.015,0.015,0],[0.985,0.015,0],[0.985,0.985,0],[0.015,0.985,0],[0.25,0,0],[0.5,0,0],[0.75,0,0],[1,0.25,0],[1,0.5,0],[1,0.75,0],[0.75,1,0],[0.5,1,0],[0.25,1,0],[0,0.75,0],[0,0.5,0],[0,0.25,0]];verticalLabelPosition=bottom;html=1;verticalAlign=top;aspect=fixed;align=center;pointerEvents=1;shape=mxgraph.cisco19.rect;prIcon=monitor;fillColor=#FAFAFA;strokeColor=#005073;" parent="1" vertex="1">
          <mxGeometry x="318" y="300" width="64" height="50" as="geometry" />
        </mxCell>
        <mxCell id="QAPO_vSzAAuB1gk4NF0p-18" style="rounded=0;orthogonalLoop=1;jettySize=auto;html=1;entryX=0.25;entryY=0;entryDx=0;entryDy=0;entryPerimeter=0;" parent="1" source="QAPO_vSzAAuB1gk4NF0p-15" target="QAPO_vSzAAuB1gk4NF0p-12" edge="1">
          <mxGeometry relative="1" as="geometry" />
        </mxCell>
        <mxCell id="3dfOVoi1OYaX4TrJoxds-1" style="edgeStyle=orthogonalEdgeStyle;rounded=0;orthogonalLoop=1;jettySize=auto;html=1;" edge="1" parent="1" source="QAPO_vSzAAuB1gk4NF0p-15" target="QAPO_vSzAAuB1gk4NF0p-11">
          <mxGeometry relative="1" as="geometry">
            <Array as="points">
              <mxPoint x="370" y="209" />
              <mxPoint x="370" y="209" />
            </Array>
          </mxGeometry>
        </mxCell>
        <mxCell id="QAPO_vSzAAuB1gk4NF0p-15" value="" style="fillColor=#28A8E0;verticalLabelPosition=bottom;sketch=0;html=1;strokeColor=#ffffff;verticalAlign=top;align=center;points=[[0.145,0.145,0],[0.5,0,0],[0.855,0.145,0],[1,0.5,0],[0.855,0.855,0],[0.5,1,0],[0.145,0.855,0],[0,0.5,0]];pointerEvents=1;shape=mxgraph.cisco_safe.compositeIcon;bgIcon=ellipse;resIcon=mxgraph.cisco_safe.capability.analysis_correlation;" parent="1" vertex="1">
          <mxGeometry x="272.5" y="183.5" width="50" height="50" as="geometry" />
        </mxCell>
        <mxCell id="QAPO_vSzAAuB1gk4NF0p-32" value="Normalisierung" style="text;html=1;strokeColor=none;fillColor=none;align=center;verticalAlign=middle;whiteSpace=wrap;rounded=0;" parent="1" vertex="1">
          <mxGeometry x="147.5" y="360" width="90" height="30" as="geometry" />
        </mxCell>
        <mxCell id="QAPO_vSzAAuB1gk4NF0p-38" value="Sammlung" style="text;html=1;strokeColor=none;fillColor=none;align=center;verticalAlign=middle;whiteSpace=wrap;rounded=0;" parent="1" vertex="1">
          <mxGeometry x="42.5" y="360" width="90" height="30" as="geometry" />
        </mxCell>
        <mxCell id="QAPO_vSzAAuB1gk4NF0p-39" value="Ãœberwachung" style="text;html=1;strokeColor=none;fillColor=none;align=center;verticalAlign=middle;whiteSpace=wrap;rounded=0;" parent="1" vertex="1">
          <mxGeometry x="305" y="360" width="90" height="30" as="geometry" />
        </mxCell>
        <mxCell id="QAPO_vSzAAuB1gk4NF0p-43" value="Analyse" style="text;html=1;strokeColor=none;fillColor=none;align=center;verticalAlign=middle;whiteSpace=wrap;rounded=0;" parent="1" vertex="1">
          <mxGeometry x="260" y="250" width="75" height="20" as="geometry" />
        </mxCell>
        <mxCell id="QAPO_vSzAAuB1gk4NF0p-44" value="Speicherung" style="text;html=1;strokeColor=none;fillColor=none;align=center;verticalAlign=middle;whiteSpace=wrap;rounded=0;" parent="1" vertex="1">
          <mxGeometry x="365" y="245" width="90" height="30" as="geometry" />
        </mxCell>
        <mxCell id="QAPO_vSzAAuB1gk4NF0p-48" style="rounded=0;orthogonalLoop=1;jettySize=auto;html=1;entryX=0;entryY=0.25;entryDx=0;entryDy=0;entryPerimeter=0;" parent="1" source="QAPO_vSzAAuB1gk4NF0p-1" target="QAPO_vSzAAuB1gk4NF0p-6" edge="1">
          <mxGeometry relative="1" as="geometry" />
        </mxCell>
        <mxCell id="3dfOVoi1OYaX4TrJoxds-3" value="1" style="ellipse;whiteSpace=wrap;html=1;strokeWidth=1;fillColor=#ffcccc;strokeColor=#36393d;" vertex="1" parent="1">
          <mxGeometry x="35" y="171" width="17" height="20" as="geometry" />
        </mxCell>
        <mxCell id="3dfOVoi1OYaX4TrJoxds-4" value="2" style="ellipse;whiteSpace=wrap;html=1;strokeWidth=1;fillColor=#ffcccc;strokeColor=#36393d;" vertex="1" parent="1">
          <mxGeometry x="140" y="170" width="17" height="20" as="geometry" />
        </mxCell>
        <mxCell id="3dfOVoi1OYaX4TrJoxds-5" value="5" style="ellipse;whiteSpace=wrap;html=1;strokeWidth=1;fillColor=#ffcccc;strokeColor=#36393d;" vertex="1" parent="1">
          <mxGeometry x="245" y="290" width="17" height="20" as="geometry" />
        </mxCell>
        <mxCell id="3dfOVoi1OYaX4TrJoxds-6" value="4" style="ellipse;whiteSpace=wrap;html=1;strokeWidth=1;fillColor=#ffcccc;strokeColor=#36393d;" vertex="1" parent="1">
          <mxGeometry x="350" y="171" width="17" height="20" as="geometry" />
        </mxCell>
        <mxCell id="3dfOVoi1OYaX4TrJoxds-7" value="3" style="ellipse;whiteSpace=wrap;html=1;strokeWidth=1;fillColor=#ffcccc;strokeColor=#36393d;" vertex="1" parent="1">
          <mxGeometry x="245" y="171" width="17" height="20" as="geometry" />
        </mxCell>
      </root>
    </mxGraphModel>
  </diagram>
</mxfile>
